<?xml version="1.0" encoding="utf-8"?>
<!-- Generator: Adobe Illustrator 25.4.1, SVG Export Plug-In . SVG Version: 6.00 Build 0)  -->
<svg version="1.1" id="Capa_1" xmlns="http://www.w3.org/2000/svg" xmlns:xlink="http://www.w3.org/1999/xlink" x="0px" y="0px"
	 viewBox="0 0 1366 80" style="enable-background:new 0 0 1366 80;" xml:space="preserve">
<style type="text/css">
	.st0{clip-path:url(#SVGID_00000059284563149170009630000009638173262795939513_);fill:#FEFEFE;}
	.st1{clip-path:url(#SVGID_00000154408216026569698010000001915164134156385973_);}
	.st2{clip-path:url(#SVGID_00000145778223749984133880000009817601636999142031_);fill:#FEFEFE;}
	.st3{clip-path:url(#SVGID_00000044175965294456963390000001772474633493327545_);}
	.st4{clip-path:url(#SVGID_00000160868927947746914650000015399303085541193657_);fill:#FEFEFE;}
	.st5{clip-path:url(#SVGID_00000146491753748331429380000004111885453687902902_);}
	.st6{clip-path:url(#SVGID_00000013898384218418074930000010951549230272744118_);fill:#FEFEFE;}
	.st7{clip-path:url(#SVGID_00000067916930117423919810000012151796034281133715_);}
	.st8{clip-path:url(#SVGID_00000158730111481026837130000000596467586580791230_);fill:#FEFEFE;}
	.st9{clip-path:url(#SVGID_00000045590020603662786550000012288637359779785117_);}
	.st10{clip-path:url(#SVGID_00000116214506980425859370000009250904385101807537_);fill:#FEFEFE;}
	.st11{clip-path:url(#SVGID_00000114052908917112744530000016717984541751878322_);}
	.st12{clip-path:url(#SVGID_00000099627105044235737550000018217129445619227016_);fill:#FEFEFE;}
	.st13{clip-path:url(#SVGID_00000042712806344860421880000004023282659454756539_);enable-background:new    ;}
	.st14{clip-path:url(#SVGID_00000057868253072549458620000006792465875765448595_);}
	.st15{clip-path:url(#SVGID_00000089560502769070105130000011228769032048414592_);}
	.st16{fill:#FEFEFE;}
	.st17{fill:none;}
	.st18{clip-path:url(#SVGID_00000016757696305467508600000007289098170515305366_);fill:#00ADBB;}
	.st19{clip-path:url(#SVGID_00000156560298085132002570000001028041819897185694_);fill:#00ADBB;}
	.st20{clip-path:url(#SVGID_00000035520282224343707560000008958797054500783762_);fill:#0075C9;}
	.st21{clip-path:url(#SVGID_00000023269176654623481430000002834840120517626016_);fill:#0075C9;}
	.st22{clip-path:url(#SVGID_00000065782867027080397180000014414448717121871806_);fill:#FFFFFF;}
	.st23{clip-path:url(#SVGID_00000115483414480139634850000010917073388974043581_);fill:#FFFFFF;}
	.st24{clip-path:url(#SVGID_00000023960567003194001820000007330747210366931350_);fill:#00FFFF;}
	.st25{clip-path:url(#SVGID_00000014601200777636438130000011513567565879148222_);fill:#00FFFF;}
	.st26{opacity:0.9;}
	.st27{fill:none;stroke:#3C3C3B;stroke-linecap:round;stroke-linejoin:round;}
	.st28{clip-path:url(#SVGID_00000056426523311511986560000001702895914840359579_);}
	.st29{clip-path:url(#SVGID_00000087402545568371906100000004760425024913896618_);fill:#0075C9;}
	.st30{fill:none;stroke:#0075C9;stroke-linecap:square;stroke-miterlimit:10;}
	.st31{fill:none;stroke:#0075C9;stroke-miterlimit:10;}
	.st32{fill:none;stroke:#FFFFFF;stroke-width:2;stroke-linecap:square;stroke-miterlimit:10;}
	.st33{fill:#0075C9;}
	.st34{clip-path:url(#SVGID_00000034768812283939939420000003269097554411337357_);}
	.st35{clip-path:url(#SVGID_00000109722004571680481720000001966583931545363102_);fill:#FFFFFF;}
	.st36{fill:none;stroke:#FFFFFF;stroke-linecap:square;stroke-miterlimit:10;}
	.st37{fill:none;stroke:#0075C9;stroke-width:1.7;stroke-linecap:square;stroke-miterlimit:10;}
</style>
<g>
	<g>
		<g>
			<g>
				<g>
					<g>
						<g>
							<g>
								<defs>
									<rect id="SVGID_1_" x="542" y="36.8" width="3.5" height="11.2"/>
								</defs>
								<clipPath id="SVGID_00000008859396396253377690000006280345077739657651_">
									<use xlink:href="#SVGID_1_"  style="overflow:visible;"/>
								</clipPath>
								
									<rect x="537" y="31.8" style="clip-path:url(#SVGID_00000008859396396253377690000006280345077739657651_);fill:#FEFEFE;" width="13.5" height="21.2"/>
							</g>
						</g>
					</g>
				</g>
			</g>
		</g>
	</g>
	<g>
		<g>
			<g>
				<g>
					<g>
						<g>
							<g>
								<defs>
									<path id="SVGID_00000015315790649325933100000015778032859082056893_" d="M543.7,35.4c1.1,0,2-0.9,2-2.1s-0.9-2.1-2-2.1
										s-2,0.9-2,2.1C541.7,34.5,542.6,35.4,543.7,35.4"/>
								</defs>
								<clipPath id="SVGID_00000130634841266357169110000017313318224644052382_">
									<use xlink:href="#SVGID_00000015315790649325933100000015778032859082056893_"  style="overflow:visible;"/>
								</clipPath>
								<g style="clip-path:url(#SVGID_00000130634841266357169110000017313318224644052382_);">
									<g>
										<g>
											<g>
												<g>
													<g>
														<g>
															<defs>
																
																	<rect id="SVGID_00000137134253409214623810000008779854569141537156_" x="309.3" y="-4072.1" width="1440" height="4168"/>
															</defs>
															<clipPath id="SVGID_00000090291432441777468150000001619921777877284253_">
																<use xlink:href="#SVGID_00000137134253409214623810000008779854569141537156_"  style="overflow:visible;"/>
															</clipPath>
															
																<rect x="536.7" y="26.3" style="clip-path:url(#SVGID_00000090291432441777468150000001619921777877284253_);fill:#FEFEFE;" width="14.1" height="14.1"/>
														</g>
													</g>
												</g>
											</g>
										</g>
									</g>
								</g>
							</g>
						</g>
					</g>
				</g>
			</g>
		</g>
	</g>
	<g>
		<g>
			<g>
				<g>
					<g>
						<g>
							<g>
								<defs>
									<path id="SVGID_00000023965237015867471470000015318117385426968233_" d="M551.6,42.2c0-1.6,0.7-2.5,2.1-2.5
										c1.3,0,1.9,0.9,1.9,2.5v5.9h3.5V41c0-3-1.7-4.5-4.1-4.5s-3.4,1.8-3.4,1.8v-1.5h-3.3V48h3.3V42.2z"/>
								</defs>
								<clipPath id="SVGID_00000072239436372177682820000008947660011980363453_">
									<use xlink:href="#SVGID_00000023965237015867471470000015318117385426968233_"  style="overflow:visible;"/>
								</clipPath>
								<g style="clip-path:url(#SVGID_00000072239436372177682820000008947660011980363453_);">
									<g>
										<g>
											<g>
												<g>
													<g>
														<g>
															<defs>
																
																	<rect id="SVGID_00000001623719063626479200000013070956607918517689_" x="309.3" y="-4072.1" width="1440" height="4168"/>
															</defs>
															<clipPath id="SVGID_00000176753918812757759950000002626317378953941662_">
																<use xlink:href="#SVGID_00000001623719063626479200000013070956607918517689_"  style="overflow:visible;"/>
															</clipPath>
															
																<rect x="543.3" y="31.6" style="clip-path:url(#SVGID_00000176753918812757759950000002626317378953941662_);fill:#FEFEFE;" width="20.8" height="21.6"/>
														</g>
													</g>
												</g>
											</g>
										</g>
									</g>
								</g>
							</g>
						</g>
					</g>
				</g>
			</g>
		</g>
	</g>
</g>
<g>
	<g>
		<g>
			<g>
				<g>
					<g>
						<g>
							<g>
								<defs>
									<path id="SVGID_00000043430046267191298050000013269200160312212617_" d="M582,35.4c-0.5,0-1,0.5-1,1s0.5,1,1,1s1-0.5,1-1
										S582.5,35.4,582,35.4"/>
								</defs>
								<clipPath id="SVGID_00000071530123428956883440000015927227516611019707_">
									<use xlink:href="#SVGID_00000043430046267191298050000013269200160312212617_"  style="overflow:visible;"/>
								</clipPath>
								<g style="clip-path:url(#SVGID_00000071530123428956883440000015927227516611019707_);">
									<g>
										<g>
											<g>
												<g>
													<g>
														<g>
															<defs>
																
																	<rect id="SVGID_00000026139363049088655420000001050731640297492386_" x="303.1" y="-4071" width="1440" height="4168"/>
															</defs>
															<clipPath id="SVGID_00000047034202237965634580000005469805769048307099_">
																<use xlink:href="#SVGID_00000026139363049088655420000001050731640297492386_"  style="overflow:visible;"/>
															</clipPath>
															
																<rect x="576" y="30.4" style="clip-path:url(#SVGID_00000047034202237965634580000005469805769048307099_);fill:#FEFEFE;" width="12" height="12"/>
														</g>
													</g>
												</g>
											</g>
										</g>
									</g>
								</g>
							</g>
						</g>
					</g>
				</g>
			</g>
		</g>
	</g>
	<g>
		<g>
			<g>
				<g>
					<g>
						<g>
							<g>
								<defs>
									<path id="SVGID_00000096751011509074705010000006479194215120827573_" d="M577.5,36.2c-2.3,0-4.2,1.9-4.2,4.2
										s1.9,4.2,4.2,4.2s4.2-1.9,4.2-4.2S579.9,36.2,577.5,36.2 M577.5,43c-1.5,0-2.7-1.2-2.7-2.7s1.2-2.7,2.7-2.7
										s2.7,1.2,2.7,2.7S579,43,577.5,43"/>
								</defs>
								<clipPath id="SVGID_00000167355986326170809710000010218076430430698903_">
									<use xlink:href="#SVGID_00000096751011509074705010000006479194215120827573_"  style="overflow:visible;"/>
								</clipPath>
								<g style="clip-path:url(#SVGID_00000167355986326170809710000010218076430430698903_);">
									<g>
										<g>
											<g>
												<g>
													<g>
														<g>
															<defs>
																
																	<rect id="SVGID_00000155131133790388400140000004936184776734467740_" x="303.1" y="-4071.5" width="1440" height="4168"/>
															</defs>
															<clipPath id="SVGID_00000064350314147063003610000005784931337020217501_">
																<use xlink:href="#SVGID_00000155131133790388400140000004936184776734467740_"  style="overflow:visible;"/>
															</clipPath>
															
																<rect x="568.3" y="31.2" style="clip-path:url(#SVGID_00000064350314147063003610000005784931337020217501_);fill:#FEFEFE;" width="18.4" height="18.4"/>
														</g>
													</g>
												</g>
											</g>
										</g>
									</g>
								</g>
							</g>
						</g>
					</g>
				</g>
			</g>
		</g>
	</g>
	<g>
		<g>
			<g>
				<g>
					<g>
						<g>
							<g>
								<defs>
									<path id="SVGID_00000047771330398059799920000003553709683426183057_" d="M580.9,48.9h-6.8c-2.8,0-5.1-2.3-5.1-5.1V37
										c0-2.8,2.3-5.1,5.1-5.1h6.8c2.8,0,5.1,2.3,5.1,5.1v6.8C586,46.6,583.7,48.9,580.9,48.9z M574.1,33.5
										c-1.9,0-3.5,1.6-3.5,3.5v6.8c0,1.9,1.6,3.5,3.5,3.5h6.8c1.9,0,3.5-1.6,3.5-3.5V37c0-1.9-1.6-3.5-3.5-3.5H574.1z"/>
								</defs>
								<clipPath id="SVGID_00000162320947659243214730000015306289854817908114_">
									<use xlink:href="#SVGID_00000047771330398059799920000003553709683426183057_"  style="overflow:visible;"/>
								</clipPath>
								<g style="clip-path:url(#SVGID_00000162320947659243214730000015306289854817908114_);">
									<g>
										<g>
											<g>
												<g>
													<g>
														<g>
															<defs>
																
																	<rect id="SVGID_00000004546295540242791950000015003320849160269479_" x="303.1" y="-4071.5" width="1440" height="4168"/>
															</defs>
															<clipPath id="SVGID_00000076578059169625532260000006676635655472893353_">
																<use xlink:href="#SVGID_00000004546295540242791950000015003320849160269479_"  style="overflow:visible;"/>
															</clipPath>
															
																<rect x="564" y="26.8" style="clip-path:url(#SVGID_00000076578059169625532260000006676635655472893353_);fill:#FEFEFE;" width="27" height="27"/>
														</g>
													</g>
												</g>
											</g>
										</g>
									</g>
								</g>
							</g>
						</g>
					</g>
				</g>
			</g>
		</g>
	</g>
</g>
<g>
	<g>
		<g>
			<g>
				<g>
					<g>
						<g>
							<defs>
								<path id="SVGID_00000042702605909791758500000003470707535519217315_" d="M532.8,34.1c-0.6,0.3-1.3,0.5-2,0.6
									c0.3-0.1,0.8-0.6,1-0.9c0.3-0.4,0.5-0.8,0.7-1.2v-0.1h-0.1c-0.8,0.4-1.5,0.7-2.4,0.9c-0.1,0-0.1,0-0.2,0
									c-0.1-0.1-0.1-0.2-0.2-0.2c-0.3-0.3-0.7-0.5-1.2-0.7c-0.6-0.2-1.2-0.3-1.8-0.3s-1.2,0.2-1.7,0.5s-1,0.7-1.4,1.1
									c-0.4,0.5-0.7,1-0.8,1.6s-0.1,1.1,0,1.7c0,0.1,0,0.1-0.1,0.1c-3.3-0.5-6-1.7-8.2-4.2c-0.1-0.1-0.2-0.1-0.2,0
									c-1,1.5-0.5,3.8,0.7,4.9c0.2,0.2,0.3,0.3,0.5,0.5c-0.1,0-0.9-0.1-1.6-0.5c-0.1-0.1-0.2,0-0.2,0.1c0,0.2,0,0.3,0,0.5
									c0.2,1.5,1.2,2.8,2.6,3.4c0.2,0.1,0.3,0.1,0.5,0.2c-0.3,0.1-0.6,0.1-1.6,0c-0.1,0-0.2,0-0.1,0.1c0.7,1.9,2.2,2.4,3.3,2.7
									c0.2,0,0.3,0,0.5,0.1l0,0c-0.4,0.6-1.6,1-2.2,1.2c-1.1,0.4-2.2,0.5-3.4,0.4c-0.2,0-0.2,0-0.3,0v0.1c0.2,0.2,0.5,0.3,0.7,0.4
									c0.7,0.4,1.5,0.7,2.3,0.9c4.1,1.1,8.7,0.3,11.7-2.7c2.4-2.4,3.2-5.7,3.2-9c0-0.1,0.2-0.2,0.2-0.3c0.6-0.5,1.1-1,1.6-1.7
									C532.9,34.3,532.9,34.2,532.8,34.1L532.8,34.1C532.9,34.1,532.9,34.1,532.8,34.1"/>
							</defs>
							<clipPath id="SVGID_00000083803825140477277990000001310633860517939888_">
								<use xlink:href="#SVGID_00000042702605909791758500000003470707535519217315_"  style="overflow:visible;"/>
							</clipPath>
							<g style="clip-path:url(#SVGID_00000083803825140477277990000001310633860517939888_);">
								<g>
									<g>
										<g>
											<g>
												<g>
													<g>
														<defs>
															
																<rect id="SVGID_00000181077148001605909320000009258049729191761039_" x="316" y="-4071.5" width="1440" height="4168"/>
														</defs>
														<clipPath id="SVGID_00000168827389445694148990000001825812856957351613_">
															<use xlink:href="#SVGID_00000181077148001605909320000009258049729191761039_"  style="overflow:visible;"/>
														</clipPath>
														
															<rect x="507.9" y="27.1" style="clip-path:url(#SVGID_00000168827389445694148990000001825812856957351613_);fill:#FEFEFE;" width="30" height="26.4"/>
													</g>
												</g>
											</g>
										</g>
									</g>
								</g>
							</g>
						</g>
					</g>
				</g>
			</g>
		</g>
	</g>
</g>
<g>
	<g>
		<g>
			<g>
				<g>
					<g>
						<g>
							<defs>
								<rect id="SVGID_00000163755070096562471080000016160764442120163731_" x="492" y="29.5" width="10.5" height="19.6"/>
							</defs>
							<clipPath id="SVGID_00000155108199493234279450000007245676701747109053_">
								<use xlink:href="#SVGID_00000163755070096562471080000016160764442120163731_"  style="overflow:visible;"/>
							</clipPath>
							<g style="clip-path:url(#SVGID_00000155108199493234279450000007245676701747109053_);enable-background:new    ;">
								<g>
									<g>
										<g>
											<g>
												<g>
													<g>
														<g>
															<defs>
																<rect id="SVGID_00000176728580665735570230000014184978038812990097_" x="491" y="29.5" width="12" height="20"/>
															</defs>
															<clipPath id="SVGID_00000090985024201553447450000016851728076717320071_">
																<use xlink:href="#SVGID_00000176728580665735570230000014184978038812990097_"  style="overflow:visible;"/>
															</clipPath>
															<g style="clip-path:url(#SVGID_00000090985024201553447450000016851728076717320071_);">
																<g>
																	<g>
																		<g>
																			<g>
																				<g>
																					<g>
																						<defs>
																							<path id="SVGID_00000134953187980539084590000009755171752129204395_" d="M501.8,40.6l0.5-3.5H499v-2.3
																								c0-1,0.5-1.9,2-1.9h1.5v-3c0,0-1.4-0.2-2.8-0.2c-2.8,0-4.6,1.7-4.6,4.8V37H492v3.5h3.1v8.6h3.8v-8.6
																								L501.8,40.6L501.8,40.6z"/>
																						</defs>
																						<clipPath id="SVGID_00000101785586944449219200000004067906533412725140_">
																							<use xlink:href="#SVGID_00000134953187980539084590000009755171752129204395_"  style="overflow:visible;"/>
																						</clipPath>
																						<g style="clip-path:url(#SVGID_00000101785586944449219200000004067906533412725140_);">
																							<g>
																								<g>
																									<g>
																										<g>
																											<g>
																												<g>
																													<rect x="487" y="24.5" class="st16" width="20.5" height="29.6"/>
																												</g>
																											</g>
																										</g>
																									</g>
																								</g>
																							</g>
																						</g>
																					</g>
																				</g>
																			</g>
																		</g>
																	</g>
																</g>
															</g>
														</g>
													</g>
												</g>
											</g>
										</g>
									</g>
								</g>
							</g>
						</g>
					</g>
				</g>
			</g>
		</g>
	</g>
</g>
<rect x="492" y="29.5" class="st17" width="11" height="20"/>
<g>
	<g>
		<g>
			<g>
				<g>
					<g>
						<g>
							<defs>
								<path id="SVGID_00000090986476196330347550000012189049008544983741_" d="M9.3,40c0,0.2,0.1,0.3,0.2,0.4L20,51.6
									c0.2,0.3,0.7,0.3,0.9,0c0.2-0.2,0.3-0.7,0-0.9l-9.5-10.1h30.1c0.4,0,0.7-0.3,0.7-0.7s-0.3-0.7-0.7-0.7h-30l9.5-10
									c0.2-0.2,0.2-0.7,0-1c-0.2-0.2-0.6-0.2-0.9,0L9.5,39.5C9.4,39.7,9.3,39.8,9.3,40L9.3,40z M2.1,40
									c0-13.1,10.6-23.7,23.7-23.7S49.5,26.9,49.5,40S38.9,63.6,25.8,63.6S2.1,53,2.1,40z M0.8,40c0,13.8,11.2,25,25,25
									s25-11.2,25-25s-11.2-25-25-25S0.8,26.1,0.8,40z"/>
							</defs>
							<clipPath id="SVGID_00000145775785803572659940000007605602327818737599_">
								<use xlink:href="#SVGID_00000090986476196330347550000012189049008544983741_"  style="overflow:visible;"/>
							</clipPath>
							
								<rect x="-4.2" y="9.9" style="clip-path:url(#SVGID_00000145775785803572659940000007605602327818737599_);fill:#00ADBB;" width="60" height="60"/>
						</g>
					</g>
				</g>
			</g>
		</g>
	</g>
</g>
<g>
	<g>
		<g>
			<g>
				<g>
					<g>
						<g>
							<defs>
								<path id="SVGID_00000066487581604293181300000002852945689790846126_" d="M102.2,39.9c0-0.2-0.1-0.3-0.2-0.4L91.5,28.3
									c-0.2-0.3-0.7-0.3-0.9,0s-0.3,0.7,0,0.9l9.5,10.1H70c-0.4,0-0.7,0.3-0.7,0.7s0.3,0.7,0.7,0.7h30l-9.5,10.1
									c-0.2,0.2-0.2,0.7,0,1s0.7,0.2,0.9,0l10.5-11.2C102.2,40.2,102.2,40.1,102.2,39.9L102.2,39.9z M109.5,40
									c0,13.1-10.6,23.7-23.7,23.7S62.1,53,62.1,40s10.6-23.7,23.7-23.7S109.5,26.9,109.5,40z M110.8,40c0-13.8-11.2-25-25-25
									s-25,11.2-25,25s11.2,25,25,25S110.8,53.8,110.8,40z"/>
							</defs>
							<clipPath id="SVGID_00000045599634465348928180000007699453279893111937_">
								<use xlink:href="#SVGID_00000066487581604293181300000002852945689790846126_"  style="overflow:visible;"/>
							</clipPath>
							
								<rect x="55.8" y="9.9" style="clip-path:url(#SVGID_00000045599634465348928180000007699453279893111937_);fill:#00ADBB;" width="60" height="60"/>
						</g>
					</g>
				</g>
			</g>
		</g>
	</g>
</g>
<g>
	<g>
		<g>
			<g>
				<g>
					<g>
						<g>
							<defs>
								<path id="SVGID_00000165921917823821793710000002487779758807955599_" d="M129.7,40.3c0,0.2,0.1,0.3,0.2,0.4l10.5,11.2
									c0.2,0.3,0.7,0.3,0.9,0c0.2-0.2,0.3-0.7,0-0.9l-9.5-10.1H162c0.4,0,0.7-0.3,0.7-0.7s-0.3-0.7-0.7-0.7h-30.1l9.5-10.1
									c0.2-0.2,0.2-0.7,0-1c-0.2-0.2-0.6-0.2-0.9,0L130,39.6C129.8,40,129.7,40.1,129.7,40.3L129.7,40.3z M122.5,40.3
									c0-13.1,10.6-23.7,23.7-23.7s23.7,10.6,23.7,23.7S159.3,64,146.2,64S122.5,53.4,122.5,40.3z M121.2,40.3
									c0,13.8,11.2,25,25,25s25-11.2,25-25s-11.2-25-25-25S121.2,26.5,121.2,40.3z"/>
							</defs>
							<clipPath id="SVGID_00000072270195739917098280000005904974316037192845_">
								<use xlink:href="#SVGID_00000165921917823821793710000002487779758807955599_"  style="overflow:visible;"/>
							</clipPath>
							
								<rect x="116.2" y="10.3" style="clip-path:url(#SVGID_00000072270195739917098280000005904974316037192845_);fill:#0075C9;" width="60" height="60"/>
						</g>
					</g>
				</g>
			</g>
		</g>
	</g>
</g>
<g>
	<g>
		<g>
			<g>
				<g>
					<g>
						<g>
							<defs>
								<path id="SVGID_00000054954880126934546210000015192185352198177184_" d="M222.6,40.2c0-0.2-0.1-0.3-0.2-0.4l-10.5-11.2
									c-0.2-0.3-0.7-0.3-0.9,0s-0.3,0.7,0,0.9l9.5,10.1h-30.1c-0.4,0-0.7,0.3-0.7,0.7s0.3,0.7,0.7,0.7h30.1L211,51
									c-0.2,0.2-0.2,0.7,0,1s0.6,0.2,0.9,0l10.5-11.2C222.6,40.6,222.6,40.4,222.6,40.2L222.6,40.2z M229.9,40.3
									c0,13.1-10.6,23.7-23.7,23.7s-23.7-10.6-23.7-23.7s10.6-23.7,23.7-23.7S229.9,27.2,229.9,40.3z M231.2,40.3
									c0-13.8-11.2-25-25-25s-25,11.2-25,25s11.2,25,25,25S231.2,54.1,231.2,40.3z"/>
							</defs>
							<clipPath id="SVGID_00000031192036985638559510000011118902582447389097_">
								<use xlink:href="#SVGID_00000054954880126934546210000015192185352198177184_"  style="overflow:visible;"/>
							</clipPath>
							
								<rect x="176.2" y="10.3" style="clip-path:url(#SVGID_00000031192036985638559510000011118902582447389097_);fill:#0075C9;" width="60" height="60"/>
						</g>
					</g>
				</g>
			</g>
		</g>
	</g>
</g>
<g>
	<g>
		<g>
			<g>
				<g>
					<g>
						<g>
							<defs>
								<path id="SVGID_00000086682794639754200060000003889353744866572432_" d="M250.4,40.1c0,0.2,0.1,0.3,0.2,0.4l10.5,11.2
									c0.2,0.3,0.7,0.3,0.9,0c0.2-0.2,0.3-0.7,0-0.9l-9.5-10.1h30.1c0.4,0,0.7-0.3,0.7-0.7s-0.3-0.7-0.7-0.7h-30.1l9.5-10.1
									c0.2-0.2,0.2-0.7,0-1c-0.2-0.2-0.6-0.2-0.9,0l-10.5,11.2C250.4,39.8,250.4,40,250.4,40.1L250.4,40.1z M243.1,40.1
									c0-13.1,10.6-23.7,23.7-23.7s23.7,10.6,23.7,23.7s-10.6,23.7-23.7,23.7C253.7,63.8,243.1,53.2,243.1,40.1z M241.8,40.1
									c0,13.8,11.2,25,25,25s25-11.2,25-25s-11.2-25-25-25S241.8,26.3,241.8,40.1z"/>
							</defs>
							<clipPath id="SVGID_00000087406149357178642270000016204268162158156441_">
								<use xlink:href="#SVGID_00000086682794639754200060000003889353744866572432_"  style="overflow:visible;"/>
							</clipPath>
							
								<rect x="236.8" y="10.1" style="clip-path:url(#SVGID_00000087406149357178642270000016204268162158156441_);fill:#FFFFFF;" width="60" height="60"/>
						</g>
					</g>
				</g>
			</g>
		</g>
	</g>
</g>
<g>
	<g>
		<g>
			<g>
				<g>
					<g>
						<g>
							<defs>
								<path id="SVGID_00000145740540347822527680000016488811779025284247_" d="M343.3,40.1c0-0.2-0.1-0.3-0.2-0.4l-10.5-11.2
									c-0.2-0.3-0.7-0.3-0.9,0s-0.3,0.7,0,0.9l9.5,10.1H311c-0.4,0-0.7,0.3-0.7,0.7s0.3,0.7,0.7,0.7h30.1L331.6,51
									c-0.2,0.2-0.2,0.7,0,1s0.6,0.2,0.9,0L343,40.8C343.2,40.4,343.3,40.2,343.3,40.1L343.3,40.1z M350.5,40.1
									c0,13.1-10.6,23.7-23.7,23.7s-23.7-10.6-23.7-23.7s10.6-23.7,23.7-23.7S350.5,27,350.5,40.1z M351.8,40.1
									c0-13.8-11.2-25-25-25s-25,11.2-25,25s11.2,25,25,25S351.8,53.9,351.8,40.1z"/>
							</defs>
							<clipPath id="SVGID_00000000211298927447287140000014704438462731601811_">
								<use xlink:href="#SVGID_00000145740540347822527680000016488811779025284247_"  style="overflow:visible;"/>
							</clipPath>
							
								<rect x="296.8" y="10.1" style="clip-path:url(#SVGID_00000000211298927447287140000014704438462731601811_);fill:#FFFFFF;" width="60" height="60"/>
						</g>
					</g>
				</g>
			</g>
		</g>
	</g>
</g>
<g>
	<g>
		<g>
			<g>
				<g>
					<g>
						<g>
							<defs>
								<path id="SVGID_00000070079849719355561970000007477048456418405035_" d="M372.5,39.8c0,0.2,0.1,0.4,0.2,0.5l11.5,13.2
									c0.3,0.3,0.8,0.3,1,0c0.3-0.3,0.3-0.8,0-1.1l-10.4-11.9h32.9c0.4,0,0.7-0.3,0.7-0.8s-0.3-0.8-0.7-0.8h-32.9L385.2,27
									c0.3-0.3,0.2-0.8,0-1.1s-0.7-0.3-1,0l-11.5,13.2C372.5,39.5,372.5,39.7,372.5,39.8L372.5,39.8z M364.5,39.8
									c0-14.4,11.6-26,26-26s26,11.6,26,26s-11.6,26-26,26S364.5,54.2,364.5,39.8z M362.5,39.8c0,15.5,12.5,28,28,28
									s28-12.5,28-28s-12.5-28-28-28C375,11.8,362.5,24.4,362.5,39.8z"/>
							</defs>
							<clipPath id="SVGID_00000062189833041090488790000012153952365011175076_">
								<use xlink:href="#SVGID_00000070079849719355561970000007477048456418405035_"  style="overflow:visible;"/>
							</clipPath>
							
								<rect x="352.5" y="1.8" style="clip-path:url(#SVGID_00000062189833041090488790000012153952365011175076_);fill:#00FFFF;" width="76" height="76"/>
						</g>
					</g>
				</g>
			</g>
		</g>
	</g>
</g>
<g>
	<g>
		<g>
			<g>
				<g>
					<g>
						<g>
							<defs>
								<path id="SVGID_00000123442851170273045960000017700515673444450715_" d="M474.5,39.8c0-0.2-0.1-0.4-0.2-0.5L462.8,26
									c-0.3-0.3-0.8-0.3-1,0c-0.3,0.3-0.3,0.8,0,1.1L472.1,39h-32.9c-0.4,0-0.7,0.3-0.7,0.8s0.3,0.8,0.7,0.8h32.9l-10.4,11.9
									c-0.3,0.3-0.2,0.8,0,1.1c0.3,0.3,0.7,0.3,1,0l11.5-13.2C474.4,40.2,474.5,40,474.5,39.8L474.5,39.8z M482.5,39.8
									c0,14.4-11.6,26-26,26s-26-11.6-26-26s11.6-26,26-26C470.8,13.8,482.5,25.4,482.5,39.8z M484.5,39.8c0-15.5-12.5-28-28-28
									s-28,12.5-28,28s12.5,28,28,28S484.5,55.3,484.5,39.8z"/>
							</defs>
							<clipPath id="SVGID_00000067955825741753283920000001645564270017428646_">
								<use xlink:href="#SVGID_00000123442851170273045960000017700515673444450715_"  style="overflow:visible;"/>
							</clipPath>
							
								<rect x="418.5" y="1.8" style="clip-path:url(#SVGID_00000067955825741753283920000001645564270017428646_);fill:#00FFFF;" width="76" height="76"/>
						</g>
					</g>
				</g>
			</g>
		</g>
	</g>
</g>
<g id="Page-1" class="st26">
	<g id="_x32_108-Creatio-Home" transform="translate(-949.000000, -3506.000000)">
		<g id="Group" transform="translate(950.000000, 3507.000000)">
			<polygon id="Rectangle-6-Copy-8" class="st27" points="595.3,25.5 610.5,25.5 617.3,32.6 617.3,52.5 595.3,52.5 			"/>
			<polygon id="Rectangle-Copy-8" class="st27" points="602.3,41.5 611.3,41.5 611.3,46.5 602.3,46.5 			"/>
		</g>
	</g>
</g>
<g>
	<g>
		<g>
			<g>
				<g>
					<g>
						<defs>
							<path id="SVGID_00000067204837958868950610000015956723283913020582_" d="M656.3,39.7c0,7.2-5.8,13-13,13s-13-5.8-13-13
								s5.8-13,13-13S656.3,32.5,656.3,39.7z M657.3,39.7c0-7.7-6.3-14-14-14s-14,6.3-14,14s6.3,14,14,14S657.3,47.4,657.3,39.7z"/>
						</defs>
						<clipPath id="SVGID_00000152245700090200110870000005937917442067167386_">
							<use xlink:href="#SVGID_00000067204837958868950610000015956723283913020582_"  style="overflow:visible;"/>
						</clipPath>
						<g style="clip-path:url(#SVGID_00000152245700090200110870000005937917442067167386_);">
							<g>
								<g>
									<g>
										<g>
											<defs>
												
													<rect id="SVGID_00000117648210992597570520000007481426333606854570_" x="-118.7" y="-3584.3" width="1440" height="4638"/>
											</defs>
											<clipPath id="SVGID_00000063608317284967404280000009814247684135949989_">
												<use xlink:href="#SVGID_00000117648210992597570520000007481426333606854570_"  style="overflow:visible;"/>
											</clipPath>
											
												<rect x="624.3" y="20.7" style="clip-path:url(#SVGID_00000063608317284967404280000009814247684135949989_);fill:#0075C9;" width="38" height="38"/>
										</g>
									</g>
								</g>
							</g>
						</g>
					</g>
				</g>
			</g>
		</g>
	</g>
	<line class="st30" x1="643.3" y1="31.7" x2="643.3" y2="47.7"/>
	<line class="st30" x1="635.3" y1="39.7" x2="651.3" y2="39.7"/>
</g>
<circle class="st31" cx="680.9" cy="39.7" r="13"/>
<line class="st30" x1="675.4" y1="33.6" x2="686.8" y2="45.2"/>
<line class="st30" x1="686.9" y1="33.7" x2="675.3" y2="45.1"/>
<g>
	<line class="st32" x1="801.4" y1="26.7" x2="827" y2="52.7"/>
	<line class="st32" x1="827.2" y1="26.9" x2="801.2" y2="52.5"/>
</g>
<path class="st33" d="M719.6,42.9c-1,0-1.9,0.3-2.7,0.9l-4.6-2.9c0.1-0.6,0.1-1.2,0-1.9l4.6-2.9c0.7,0.6,1.7,0.9,2.7,0.9
	c2.4,0,4.3-1.9,4.3-4.3s-1.9-4.3-4.3-4.3c-2.4,0-4.3,1.9-4.3,4.3c0,0.3,0,0.6,0.1,0.9l-4.6,2.9c-0.7-0.6-1.7-0.9-2.7-0.9
	c-2.4,0-4.3,1.9-4.3,4.3s1.9,4.3,4.3,4.3c1,0,1.9-0.3,2.7-0.9l4.6,2.9c-0.1,0.3-0.1,0.6-0.1,0.9c0,2.4,1.9,4.3,4.3,4.3
	c2.4,0,4.3-1.9,4.3-4.3S722,42.9,719.6,42.9z"/>
<g>
	<g>
		<defs>
			<path id="SVGID_00000065772039258854472410000015356339552365281671_" d="M761.3,40.4c0,7.2-5.8,13-13,13s-13-5.8-13-13
				s5.8-13,13-13C755.5,27.4,761.3,33.2,761.3,40.4z M762.3,40.4c0-7.7-6.3-14-14-14s-14,6.3-14,14s6.3,14,14,14
				S762.3,48.1,762.3,40.4z"/>
		</defs>
		<clipPath id="SVGID_00000135648968668434577480000000118012393202428048_">
			<use xlink:href="#SVGID_00000065772039258854472410000015356339552365281671_"  style="overflow:visible;"/>
		</clipPath>
		<g style="clip-path:url(#SVGID_00000135648968668434577480000000118012393202428048_);">
			<g>
				<defs>
					<rect id="SVGID_00000166660751273538149890000014708705493077436805_" x="392.3" y="-2175.6" width="1441" height="5247"/>
				</defs>
				<clipPath id="SVGID_00000083798664268983884270000012336221292361822862_">
					<use xlink:href="#SVGID_00000166660751273538149890000014708705493077436805_"  style="overflow:visible;"/>
				</clipPath>
				
					<rect x="729.3" y="21.4" style="clip-path:url(#SVGID_00000083798664268983884270000012336221292361822862_);fill:#FFFFFF;" width="38" height="38"/>
			</g>
		</g>
	</g>
</g>
<g>
	<line class="st36" x1="748.8" y1="31.9" x2="748.8" y2="47.9"/>
	<line class="st36" x1="740.8" y1="39.9" x2="756.8" y2="39.9"/>
</g>
<g>
	<line class="st37" x1="781.3" y1="31.7" x2="781.3" y2="47.7"/>
	<line class="st37" x1="773.3" y1="39.7" x2="789.3" y2="39.7"/>
</g>
</svg>
