<?xml version="1.0" encoding="utf-8"?>
<!-- Generator: Adobe Illustrator 25.4.1, SVG Export Plug-In . SVG Version: 6.00 Build 0)  -->
<svg version="1.1" id="Capa_1" xmlns="http://www.w3.org/2000/svg" xmlns:xlink="http://www.w3.org/1999/xlink" x="0px" y="0px"
	 viewBox="0 0 1366 80" style="enable-background:new 0 0 1366 80;" xml:space="preserve">
<style type="text/css">
	.st0{fill:none;stroke:#0075C9;stroke-width:2.7;stroke-linecap:square;stroke-miterlimit:10;}
	.st1{clip-path:url(#SVGID_00000180350273640938051150000003234983138924885923_);fill:#FEFEFE;}
	.st2{clip-path:url(#SVGID_00000008128889778716462480000005559812904064197308_);}
	.st3{clip-path:url(#SVGID_00000121964263406315015020000006223099223522354869_);fill:#FEFEFE;}
	.st4{clip-path:url(#SVGID_00000091012444322965219880000015855565628215773087_);}
	.st5{clip-path:url(#SVGID_00000027586279843194917940000006296298213292614333_);fill:#FEFEFE;}
	.st6{clip-path:url(#SVGID_00000057859249894787690480000000965706164227938182_);}
	.st7{clip-path:url(#SVGID_00000168820313245547155660000010362416324599203774_);fill:#FEFEFE;}
	.st8{clip-path:url(#SVGID_00000068664987780151615570000012228879981313269673_);}
	.st9{clip-path:url(#SVGID_00000018231506051926645470000005069536181649430969_);fill:#FEFEFE;}
	.st10{clip-path:url(#SVGID_00000093885280118919327580000003324725195354220416_);}
	.st11{clip-path:url(#SVGID_00000050658620705836771790000015050487251779418784_);fill:#FEFEFE;}
	.st12{clip-path:url(#SVGID_00000079474882069255185160000014581545060994582202_);}
	.st13{clip-path:url(#SVGID_00000085944548058356977290000008890636277012198316_);fill:#FEFEFE;}
	.st14{clip-path:url(#SVGID_00000144298190679560584820000008184646593486933940_);fill:#00ADBB;}
	.st15{clip-path:url(#SVGID_00000016763451813589229770000001721511188390552197_);fill:#00ADBB;}
	.st16{clip-path:url(#SVGID_00000181048093389432343920000014975044733098288052_);fill:#0075C9;}
	.st17{clip-path:url(#SVGID_00000160873245252956576240000011211109364778477991_);fill:#0075C9;}
	.st18{clip-path:url(#SVGID_00000011724809806942906160000010425569589768185990_);fill:#FFFFFF;}
	.st19{clip-path:url(#SVGID_00000176012556487043747790000014309973497299491257_);fill:#FFFFFF;}
	.st20{clip-path:url(#SVGID_00000101818668787513602800000011790606761779879857_);fill:#00FFFF;}
	.st21{clip-path:url(#SVGID_00000021105417402376785100000001021426334914263451_);fill:#00FFFF;}
	.st22{opacity:0.9;}
	.st23{fill:none;stroke:#3C3C3B;stroke-linecap:round;stroke-linejoin:round;}
	.st24{clip-path:url(#SVGID_00000119823139510043762490000016984513146834057904_);}
	.st25{clip-path:url(#SVGID_00000117665377505331392540000002632684068125599377_);fill:#0075C9;}
	.st26{fill:none;stroke:#0075C9;stroke-linecap:square;stroke-miterlimit:10;}
	.st27{fill:none;stroke:#0075C9;stroke-miterlimit:10;}
	.st28{fill:none;stroke:#FFFFFF;stroke-width:2;stroke-linecap:square;stroke-miterlimit:10;}
	.st29{fill:#0075C9;}
	.st30{clip-path:url(#SVGID_00000173867878673484797640000004832656551264851883_);}
	.st31{clip-path:url(#SVGID_00000115500805116603463860000013519626764669442722_);fill:#FFFFFF;}
	.st32{fill:none;stroke:#FFFFFF;stroke-linecap:square;stroke-miterlimit:10;}
	.st33{fill:none;stroke:#0075C9;stroke-width:1.7;stroke-linecap:square;stroke-miterlimit:10;}
	.st34{clip-path:url(#SVGID_00000123400645924237123880000012460792148356552871_);enable-background:new    ;}
	.st35{clip-path:url(#SVGID_00000088093919397342418450000010700119273956458403_);}
	.st36{clip-path:url(#SVGID_00000129190460503068277450000006491519164526550924_);}
	.st37{clip-path:url(#SVGID_00000168803010745140875960000002317126824981214399_);fill:#FEFEFE;}
	.st38{clip-path:url(#SVGID_00000065043952685004991100000006632637358624174995_);}
	.st39{clip-path:url(#SVGID_00000035502548071812574710000014523195772175737492_);}
	.st40{clip-path:url(#SVGID_00000026120987298445928360000002369015168045938073_);fill:#FEFEFE;}
	.st41{clip-path:url(#SVGID_00000015343769839810317790000014852751301673547444_);}
	.st42{clip-path:url(#SVGID_00000000220624980826129480000008677593972594826404_);fill:#0075C9;}
	.st43{fill:#FFFFFF;}
</style>
<g id="Capa_2_00000030457748417490652150000017978921494777421991_">
	<g>
		<line class="st0" x1="848.5" y1="32.7" x2="871.3" y2="32.7"/>
		<line class="st0" x1="848.5" y1="39.8" x2="871.3" y2="39.8"/>
		<line class="st0" x1="848.5" y1="46.8" x2="871.3" y2="46.8"/>
	</g>
</g>
<g id="Capa_1_00000002354338030979898890000011331654718972847279_">
	<g>
		<g>
			<g>
				<g>
					<g>
						<g>
							<g>
								<g>
									<g>
										<g>
											<g>
												<defs>
													<rect id="SVGID_1_" x="542" y="36.8" width="3.5" height="11.2"/>
												</defs>
												<clipPath id="SVGID_00000142866964060898130880000004144751237491879095_">
													<use xlink:href="#SVGID_1_"  style="overflow:visible;"/>
												</clipPath>
												
													<rect x="537" y="31.8" style="clip-path:url(#SVGID_00000142866964060898130880000004144751237491879095_);fill:#FEFEFE;" width="13.5" height="21.2"/>
											</g>
										</g>
									</g>
								</g>
							</g>
						</g>
					</g>
				</g>
			</g>
		</g>
		<g>
			<g>
				<g>
					<g>
						<g>
							<g>
								<g>
									<g>
										<g>
											<g>
												<defs>
													<path id="SVGID_00000065752738143518213360000005452996063977559697_" d="M543.7,35.4c1.1,0,2-0.9,2-2.1
														s-0.9-2.1-2-2.1s-2,0.9-2,2.1C541.7,34.5,542.6,35.4,543.7,35.4"/>
												</defs>
												<clipPath id="SVGID_00000094582106959782777280000016727623615346167984_">
													<use xlink:href="#SVGID_00000065752738143518213360000005452996063977559697_"  style="overflow:visible;"/>
												</clipPath>
												<g style="clip-path:url(#SVGID_00000094582106959782777280000016727623615346167984_);">
													<g>
														<g>
															<g>
																<g>
																	<g>
																		<g>
																			<g>
																				<g>
																					<g>
																						<defs>
																							
																								<rect id="SVGID_00000113331428327447032620000015491004963362182332_" x="309.3" y="-4072.1" width="1440" height="4168"/>
																						</defs>
																						<clipPath id="SVGID_00000046331414051183655410000017617209068624879793_">
																							<use xlink:href="#SVGID_00000113331428327447032620000015491004963362182332_"  style="overflow:visible;"/>
																						</clipPath>
																						
																							<rect x="536.7" y="26.3" style="clip-path:url(#SVGID_00000046331414051183655410000017617209068624879793_);fill:#FEFEFE;" width="14.1" height="14.1"/>
																					</g>
																				</g>
																			</g>
																		</g>
																	</g>
																</g>
															</g>
														</g>
													</g>
												</g>
											</g>
										</g>
									</g>
								</g>
							</g>
						</g>
					</g>
				</g>
			</g>
		</g>
		<g>
			<g>
				<g>
					<g>
						<g>
							<g>
								<g>
									<g>
										<g>
											<g>
												<defs>
													<path id="SVGID_00000110440638174399952820000008086288169448796314_" d="M551.6,42.2c0-1.6,0.7-2.5,2.1-2.5
														c1.3,0,1.9,0.9,1.9,2.5v5.9h3.5V41c0-3-1.7-4.5-4.1-4.5s-3.4,1.8-3.4,1.8v-1.5h-3.3V48h3.3V42.2z"/>
												</defs>
												<clipPath id="SVGID_00000078755694685526150450000006795189289978734775_">
													<use xlink:href="#SVGID_00000110440638174399952820000008086288169448796314_"  style="overflow:visible;"/>
												</clipPath>
												<g style="clip-path:url(#SVGID_00000078755694685526150450000006795189289978734775_);">
													<g>
														<g>
															<g>
																<g>
																	<g>
																		<g>
																			<g>
																				<g>
																					<g>
																						<defs>
																							
																								<rect id="SVGID_00000050639062883982362870000001783670704686387133_" x="309.3" y="-4072.1" width="1440" height="4168"/>
																						</defs>
																						<clipPath id="SVGID_00000000939040801793676540000011067192403500594351_">
																							<use xlink:href="#SVGID_00000050639062883982362870000001783670704686387133_"  style="overflow:visible;"/>
																						</clipPath>
																						
																							<rect x="543.3" y="31.6" style="clip-path:url(#SVGID_00000000939040801793676540000011067192403500594351_);fill:#FEFEFE;" width="20.8" height="21.6"/>
																					</g>
																				</g>
																			</g>
																		</g>
																	</g>
																</g>
															</g>
														</g>
													</g>
												</g>
											</g>
										</g>
									</g>
								</g>
							</g>
						</g>
					</g>
				</g>
			</g>
		</g>
	</g>
	<g>
		<g>
			<g>
				<g>
					<g>
						<g>
							<g>
								<g>
									<g>
										<g>
											<g>
												<defs>
													<path id="SVGID_00000042730180683504885570000006025012478645754500_" d="M582,35.4c-0.5,0-1,0.5-1,1s0.5,1,1,1
														s1-0.5,1-1S582.5,35.4,582,35.4"/>
												</defs>
												<clipPath id="SVGID_00000019674208694438083700000016091350388342622348_">
													<use xlink:href="#SVGID_00000042730180683504885570000006025012478645754500_"  style="overflow:visible;"/>
												</clipPath>
												<g style="clip-path:url(#SVGID_00000019674208694438083700000016091350388342622348_);">
													<g>
														<g>
															<g>
																<g>
																	<g>
																		<g>
																			<g>
																				<g>
																					<g>
																						<defs>
																							
																								<rect id="SVGID_00000007401497804269667970000011467917412325980304_" x="303.1" y="-4071" width="1440" height="4168"/>
																						</defs>
																						<clipPath id="SVGID_00000093168247341001111390000017712538596844579464_">
																							<use xlink:href="#SVGID_00000007401497804269667970000011467917412325980304_"  style="overflow:visible;"/>
																						</clipPath>
																						
																							<rect x="576" y="30.4" style="clip-path:url(#SVGID_00000093168247341001111390000017712538596844579464_);fill:#FEFEFE;" width="12" height="12"/>
																					</g>
																				</g>
																			</g>
																		</g>
																	</g>
																</g>
															</g>
														</g>
													</g>
												</g>
											</g>
										</g>
									</g>
								</g>
							</g>
						</g>
					</g>
				</g>
			</g>
		</g>
		<g>
			<g>
				<g>
					<g>
						<g>
							<g>
								<g>
									<g>
										<g>
											<g>
												<defs>
													<path id="SVGID_00000003088858850134088710000013435252701519138447_" d="M577.5,36.2c-2.3,0-4.2,1.9-4.2,4.2
														s1.9,4.2,4.2,4.2s4.2-1.9,4.2-4.2S579.9,36.2,577.5,36.2 M577.5,43c-1.5,0-2.7-1.2-2.7-2.7s1.2-2.7,2.7-2.7
														s2.7,1.2,2.7,2.7S579,43,577.5,43"/>
												</defs>
												<clipPath id="SVGID_00000020378464653989690270000010326915036988356002_">
													<use xlink:href="#SVGID_00000003088858850134088710000013435252701519138447_"  style="overflow:visible;"/>
												</clipPath>
												<g style="clip-path:url(#SVGID_00000020378464653989690270000010326915036988356002_);">
													<g>
														<g>
															<g>
																<g>
																	<g>
																		<g>
																			<g>
																				<g>
																					<g>
																						<defs>
																							
																								<rect id="SVGID_00000062184335062142183540000005732341882213982127_" x="303.1" y="-4071.5" width="1440" height="4168"/>
																						</defs>
																						<clipPath id="SVGID_00000139285501076775873080000000826979393848838555_">
																							<use xlink:href="#SVGID_00000062184335062142183540000005732341882213982127_"  style="overflow:visible;"/>
																						</clipPath>
																						
																							<rect x="568.3" y="31.2" style="clip-path:url(#SVGID_00000139285501076775873080000000826979393848838555_);fill:#FEFEFE;" width="18.4" height="18.4"/>
																					</g>
																				</g>
																			</g>
																		</g>
																	</g>
																</g>
															</g>
														</g>
													</g>
												</g>
											</g>
										</g>
									</g>
								</g>
							</g>
						</g>
					</g>
				</g>
			</g>
		</g>
		<g>
			<g>
				<g>
					<g>
						<g>
							<g>
								<g>
									<g>
										<g>
											<g>
												<defs>
													<path id="SVGID_00000126306578352727194740000012253630088847702974_" d="M580.9,48.9h-6.8c-2.8,0-5.1-2.3-5.1-5.1V37
														c0-2.8,2.3-5.1,5.1-5.1h6.8c2.8,0,5.1,2.3,5.1,5.1v6.8C586,46.6,583.7,48.9,580.9,48.9z M574.1,33.5
														c-1.9,0-3.5,1.6-3.5,3.5v6.8c0,1.9,1.6,3.5,3.5,3.5h6.8c1.9,0,3.5-1.6,3.5-3.5V37c0-1.9-1.6-3.5-3.5-3.5H574.1z"/>
												</defs>
												<clipPath id="SVGID_00000085930352992752146180000006406975227944729227_">
													<use xlink:href="#SVGID_00000126306578352727194740000012253630088847702974_"  style="overflow:visible;"/>
												</clipPath>
												<g style="clip-path:url(#SVGID_00000085930352992752146180000006406975227944729227_);">
													<g>
														<g>
															<g>
																<g>
																	<g>
																		<g>
																			<g>
																				<g>
																					<g>
																						<defs>
																							
																								<rect id="SVGID_00000018931672241571246980000012608720208871506876_" x="303.1" y="-4071.5" width="1440" height="4168"/>
																						</defs>
																						<clipPath id="SVGID_00000055686733062811843320000004083676827458824629_">
																							<use xlink:href="#SVGID_00000018931672241571246980000012608720208871506876_"  style="overflow:visible;"/>
																						</clipPath>
																						
																							<rect x="564" y="26.8" style="clip-path:url(#SVGID_00000055686733062811843320000004083676827458824629_);fill:#FEFEFE;" width="27" height="27"/>
																					</g>
																				</g>
																			</g>
																		</g>
																	</g>
																</g>
															</g>
														</g>
													</g>
												</g>
											</g>
										</g>
									</g>
								</g>
							</g>
						</g>
					</g>
				</g>
			</g>
		</g>
	</g>
	<g>
		<g>
			<g>
				<g>
					<g>
						<g>
							<g>
								<g>
									<g>
										<g>
											<defs>
												<path id="SVGID_00000011009012305976625520000016406727151683156372_" d="M532.8,34.1c-0.6,0.3-1.3,0.5-2,0.6
													c0.3-0.1,0.8-0.6,1-0.9c0.3-0.4,0.5-0.8,0.7-1.2v-0.1h-0.1c-0.8,0.4-1.5,0.7-2.4,0.9c-0.1,0-0.1,0-0.2,0
													c-0.1-0.1-0.1-0.2-0.2-0.2c-0.3-0.3-0.7-0.5-1.2-0.7c-0.6-0.2-1.2-0.3-1.8-0.3s-1.2,0.2-1.7,0.5s-1,0.7-1.4,1.1
													c-0.4,0.5-0.7,1-0.8,1.6s-0.1,1.1,0,1.7c0,0.1,0,0.1-0.1,0.1c-3.3-0.5-6-1.7-8.2-4.2c-0.1-0.1-0.2-0.1-0.2,0
													c-1,1.5-0.5,3.8,0.7,4.9c0.2,0.2,0.3,0.3,0.5,0.5c-0.1,0-0.9-0.1-1.6-0.5c-0.1-0.1-0.2,0-0.2,0.1c0,0.2,0,0.3,0,0.5
													c0.2,1.5,1.2,2.8,2.6,3.4c0.2,0.1,0.3,0.1,0.5,0.2c-0.3,0.1-0.6,0.1-1.6,0c-0.1,0-0.2,0-0.1,0.1
													c0.7,1.9,2.2,2.4,3.3,2.7c0.2,0,0.3,0,0.5,0.1l0,0c-0.4,0.6-1.6,1-2.2,1.2c-1.1,0.4-2.2,0.5-3.4,0.4c-0.2,0-0.2,0-0.3,0
													v0.1c0.2,0.2,0.5,0.3,0.7,0.4c0.7,0.4,1.5,0.7,2.3,0.9c4.1,1.1,8.7,0.3,11.7-2.7c2.4-2.4,3.2-5.7,3.2-9
													c0-0.1,0.2-0.2,0.2-0.3c0.6-0.5,1.1-1,1.6-1.7C532.9,34.3,532.9,34.2,532.8,34.1L532.8,34.1
													C532.9,34.1,532.9,34.1,532.8,34.1"/>
											</defs>
											<clipPath id="SVGID_00000140002495262388010200000015069110378653125533_">
												<use xlink:href="#SVGID_00000011009012305976625520000016406727151683156372_"  style="overflow:visible;"/>
											</clipPath>
											<g style="clip-path:url(#SVGID_00000140002495262388010200000015069110378653125533_);">
												<g>
													<g>
														<g>
															<g>
																<g>
																	<g>
																		<g>
																			<g>
																				<g>
																					<defs>
																						
																							<rect id="SVGID_00000150070685534039476670000014909863988745382587_" x="316" y="-4071.5" width="1440" height="4168"/>
																					</defs>
																					<clipPath id="SVGID_00000183212570817155454120000010461414637928994189_">
																						<use xlink:href="#SVGID_00000150070685534039476670000014909863988745382587_"  style="overflow:visible;"/>
																					</clipPath>
																					
																						<rect x="507.9" y="27.1" style="clip-path:url(#SVGID_00000183212570817155454120000010461414637928994189_);fill:#FEFEFE;" width="30" height="26.4"/>
																				</g>
																			</g>
																		</g>
																	</g>
																</g>
															</g>
														</g>
													</g>
												</g>
											</g>
										</g>
									</g>
								</g>
							</g>
						</g>
					</g>
				</g>
			</g>
		</g>
	</g>
	<g>
		<g>
			<g>
				<g>
					<g>
						<g>
							<g>
								<g>
									<g>
										<g>
											<defs>
												<rect id="SVGID_00000034073442490992019330000004017784502514452372_" x="492" y="29.5" width="10.5" height="19.6"/>
											</defs>
											<clipPath id="SVGID_00000030456656428811982720000009798601659488042667_">
												<use xlink:href="#SVGID_00000034073442490992019330000004017784502514452372_"  style="overflow:visible;"/>
											</clipPath>
										</g>
									</g>
								</g>
							</g>
						</g>
					</g>
				</g>
			</g>
		</g>
	</g>
	<g>
		<g>
			<g>
				<g>
					<g>
						<g>
							<g>
								<g>
									<g>
										<g>
											<defs>
												<path id="SVGID_00000133513258366434350390000015416310898857646240_" d="M9.3,40c0,0.2,0.1,0.3,0.2,0.4L20,51.6
													c0.2,0.3,0.7,0.3,0.9,0c0.2-0.2,0.3-0.7,0-0.9l-9.5-10.1h30.1c0.4,0,0.7-0.3,0.7-0.7s-0.3-0.7-0.7-0.7h-30l9.5-10
													c0.2-0.2,0.2-0.7,0-1c-0.2-0.2-0.6-0.2-0.9,0L9.5,39.5C9.4,39.7,9.3,39.8,9.3,40L9.3,40z M2.1,40
													c0-13.1,10.6-23.7,23.7-23.7S49.5,26.9,49.5,40S38.9,63.6,25.8,63.6S2.1,53,2.1,40z M0.8,40c0,13.8,11.2,25,25,25
													s25-11.2,25-25s-11.2-25-25-25S0.8,26.1,0.8,40z"/>
											</defs>
											<clipPath id="SVGID_00000041284251638535386110000012129093805582981008_">
												<use xlink:href="#SVGID_00000133513258366434350390000015416310898857646240_"  style="overflow:visible;"/>
											</clipPath>
											
												<rect x="-4.2" y="9.9" style="clip-path:url(#SVGID_00000041284251638535386110000012129093805582981008_);fill:#00ADBB;" width="60" height="60"/>
										</g>
									</g>
								</g>
							</g>
						</g>
					</g>
				</g>
			</g>
		</g>
	</g>
	<g>
		<g>
			<g>
				<g>
					<g>
						<g>
							<g>
								<g>
									<g>
										<g>
											<defs>
												<path id="SVGID_00000019658580827245992120000012732404887568279446_" d="M102.2,39.9c0-0.2-0.1-0.3-0.2-0.4L91.5,28.3
													c-0.2-0.3-0.7-0.3-0.9,0s-0.3,0.7,0,0.9l9.5,10.1H70c-0.4,0-0.7,0.3-0.7,0.7s0.3,0.7,0.7,0.7h30l-9.5,10.1
													c-0.2,0.2-0.2,0.7,0,1s0.7,0.2,0.9,0l10.5-11.2C102.2,40.2,102.2,40.1,102.2,39.9L102.2,39.9z M109.5,40
													c0,13.1-10.6,23.7-23.7,23.7S62.1,53,62.1,40s10.6-23.7,23.7-23.7S109.5,26.9,109.5,40z M110.8,40c0-13.8-11.2-25-25-25
													s-25,11.2-25,25s11.2,25,25,25S110.8,53.8,110.8,40z"/>
											</defs>
											<clipPath id="SVGID_00000034049807231979206650000016999539817723819425_">
												<use xlink:href="#SVGID_00000019658580827245992120000012732404887568279446_"  style="overflow:visible;"/>
											</clipPath>
											
												<rect x="55.8" y="9.9" style="clip-path:url(#SVGID_00000034049807231979206650000016999539817723819425_);fill:#00ADBB;" width="60" height="60"/>
										</g>
									</g>
								</g>
							</g>
						</g>
					</g>
				</g>
			</g>
		</g>
	</g>
	<g>
		<g>
			<g>
				<g>
					<g>
						<g>
							<g>
								<g>
									<g>
										<g>
											<defs>
												<path id="SVGID_00000181788520132088565120000008032851703003943589_" d="M129.7,40.3c0,0.2,0.1,0.3,0.2,0.4l10.5,11.2
													c0.2,0.3,0.7,0.3,0.9,0c0.2-0.2,0.3-0.7,0-0.9l-9.5-10.1H162c0.4,0,0.7-0.3,0.7-0.7s-0.3-0.7-0.7-0.7h-30.1l9.5-10.1
													c0.2-0.2,0.2-0.7,0-1c-0.2-0.2-0.6-0.2-0.9,0L130,39.6C129.8,40,129.7,40.1,129.7,40.3L129.7,40.3z M122.5,40.3
													c0-13.1,10.6-23.7,23.7-23.7s23.7,10.6,23.7,23.7S159.3,64,146.2,64S122.5,53.4,122.5,40.3z M121.2,40.3
													c0,13.8,11.2,25,25,25s25-11.2,25-25s-11.2-25-25-25S121.2,26.5,121.2,40.3z"/>
											</defs>
											<clipPath id="SVGID_00000057826716184946556080000000424486537119615661_">
												<use xlink:href="#SVGID_00000181788520132088565120000008032851703003943589_"  style="overflow:visible;"/>
											</clipPath>
											
												<rect x="116.2" y="10.3" style="clip-path:url(#SVGID_00000057826716184946556080000000424486537119615661_);fill:#0075C9;" width="60" height="60"/>
										</g>
									</g>
								</g>
							</g>
						</g>
					</g>
				</g>
			</g>
		</g>
	</g>
	<g>
		<g>
			<g>
				<g>
					<g>
						<g>
							<g>
								<g>
									<g>
										<g>
											<defs>
												<path id="SVGID_00000053547550629782618280000005491590895161227144_" d="M222.6,40.2c0-0.2-0.1-0.3-0.2-0.4l-10.5-11.2
													c-0.2-0.3-0.7-0.3-0.9,0s-0.3,0.7,0,0.9l9.5,10.1h-30.1c-0.4,0-0.7,0.3-0.7,0.7s0.3,0.7,0.7,0.7h30.1L211,51
													c-0.2,0.2-0.2,0.7,0,1s0.6,0.2,0.9,0l10.5-11.2C222.6,40.6,222.6,40.4,222.6,40.2L222.6,40.2z M229.9,40.3
													c0,13.1-10.6,23.7-23.7,23.7s-23.7-10.6-23.7-23.7s10.6-23.7,23.7-23.7S229.9,27.2,229.9,40.3z M231.2,40.3
													c0-13.8-11.2-25-25-25s-25,11.2-25,25s11.2,25,25,25S231.2,54.1,231.2,40.3z"/>
											</defs>
											<clipPath id="SVGID_00000155122003696547435310000009994686911776511167_">
												<use xlink:href="#SVGID_00000053547550629782618280000005491590895161227144_"  style="overflow:visible;"/>
											</clipPath>
											
												<rect x="176.2" y="10.3" style="clip-path:url(#SVGID_00000155122003696547435310000009994686911776511167_);fill:#0075C9;" width="60" height="60"/>
										</g>
									</g>
								</g>
							</g>
						</g>
					</g>
				</g>
			</g>
		</g>
	</g>
	<g>
		<g>
			<g>
				<g>
					<g>
						<g>
							<g>
								<g>
									<g>
										<g>
											<defs>
												<path id="SVGID_00000085237838926291599530000016491928421563896449_" d="M250.4,40.1c0,0.2,0.1,0.3,0.2,0.4l10.5,11.2
													c0.2,0.3,0.7,0.3,0.9,0c0.2-0.2,0.3-0.7,0-0.9l-9.5-10.1h30.1c0.4,0,0.7-0.3,0.7-0.7s-0.3-0.7-0.7-0.7h-30.1l9.5-10.1
													c0.2-0.2,0.2-0.7,0-1c-0.2-0.2-0.6-0.2-0.9,0l-10.5,11.2C250.4,39.8,250.4,40,250.4,40.1L250.4,40.1z M243.1,40.1
													c0-13.1,10.6-23.7,23.7-23.7s23.7,10.6,23.7,23.7s-10.6,23.7-23.7,23.7C253.7,63.8,243.1,53.2,243.1,40.1z M241.8,40.1
													c0,13.8,11.2,25,25,25s25-11.2,25-25s-11.2-25-25-25S241.8,26.3,241.8,40.1z"/>
											</defs>
											<clipPath id="SVGID_00000078756623736266313960000009197318149604087986_">
												<use xlink:href="#SVGID_00000085237838926291599530000016491928421563896449_"  style="overflow:visible;"/>
											</clipPath>
											
												<rect x="236.8" y="10.1" style="clip-path:url(#SVGID_00000078756623736266313960000009197318149604087986_);fill:#FFFFFF;" width="60" height="60"/>
										</g>
									</g>
								</g>
							</g>
						</g>
					</g>
				</g>
			</g>
		</g>
	</g>
	<g>
		<g>
			<g>
				<g>
					<g>
						<g>
							<g>
								<g>
									<g>
										<g>
											<defs>
												<path id="SVGID_00000101796832648497936120000009861718850313771140_" d="M343.3,40.1c0-0.2-0.1-0.3-0.2-0.4l-10.5-11.2
													c-0.2-0.3-0.7-0.3-0.9,0s-0.3,0.7,0,0.9l9.5,10.1H311c-0.4,0-0.7,0.3-0.7,0.7s0.3,0.7,0.7,0.7h30.1L331.6,51
													c-0.2,0.2-0.2,0.7,0,1s0.6,0.2,0.9,0L343,40.8C343.2,40.4,343.3,40.2,343.3,40.1L343.3,40.1z M350.5,40.1
													c0,13.1-10.6,23.7-23.7,23.7s-23.7-10.6-23.7-23.7s10.6-23.7,23.7-23.7S350.5,27,350.5,40.1z M351.8,40.1
													c0-13.8-11.2-25-25-25s-25,11.2-25,25s11.2,25,25,25S351.8,53.9,351.8,40.1z"/>
											</defs>
											<clipPath id="SVGID_00000033341346634690995630000012457055605868977283_">
												<use xlink:href="#SVGID_00000101796832648497936120000009861718850313771140_"  style="overflow:visible;"/>
											</clipPath>
											
												<rect x="296.8" y="10.1" style="clip-path:url(#SVGID_00000033341346634690995630000012457055605868977283_);fill:#FFFFFF;" width="60" height="60"/>
										</g>
									</g>
								</g>
							</g>
						</g>
					</g>
				</g>
			</g>
		</g>
	</g>
	<g>
		<g>
			<g>
				<g>
					<g>
						<g>
							<g>
								<g>
									<g>
										<g>
											<defs>
												<path id="SVGID_00000098943864135989771040000005288159523124379578_" d="M372.5,39.8c0,0.2,0.1,0.4,0.2,0.5l11.5,13.2
													c0.3,0.3,0.8,0.3,1,0c0.3-0.3,0.3-0.8,0-1.1l-10.4-11.9h32.9c0.4,0,0.7-0.3,0.7-0.8s-0.3-0.8-0.7-0.8h-32.9L385.2,27
													c0.3-0.3,0.2-0.8,0-1.1s-0.7-0.3-1,0l-11.5,13.2C372.5,39.5,372.5,39.7,372.5,39.8L372.5,39.8z M364.5,39.8
													c0-14.4,11.6-26,26-26s26,11.6,26,26s-11.6,26-26,26S364.5,54.2,364.5,39.8z M362.5,39.8c0,15.5,12.5,28,28,28
													s28-12.5,28-28s-12.5-28-28-28C375,11.8,362.5,24.4,362.5,39.8z"/>
											</defs>
											<clipPath id="SVGID_00000114063721521242628480000015832234732311620790_">
												<use xlink:href="#SVGID_00000098943864135989771040000005288159523124379578_"  style="overflow:visible;"/>
											</clipPath>
											
												<rect x="352.5" y="1.8" style="clip-path:url(#SVGID_00000114063721521242628480000015832234732311620790_);fill:#00FFFF;" width="76" height="76"/>
										</g>
									</g>
								</g>
							</g>
						</g>
					</g>
				</g>
			</g>
		</g>
	</g>
	<g>
		<g>
			<g>
				<g>
					<g>
						<g>
							<g>
								<g>
									<g>
										<g>
											<defs>
												<path id="SVGID_00000152243839881655398040000017201145743566855584_" d="M474.5,39.8c0-0.2-0.1-0.4-0.2-0.5L462.8,26
													c-0.3-0.3-0.8-0.3-1,0c-0.3,0.3-0.3,0.8,0,1.1L472.1,39h-32.9c-0.4,0-0.7,0.3-0.7,0.8s0.3,0.8,0.7,0.8h32.9l-10.4,11.9
													c-0.3,0.3-0.2,0.8,0,1.1c0.3,0.3,0.7,0.3,1,0l11.5-13.2C474.4,40.2,474.5,40,474.5,39.8L474.5,39.8z M482.5,39.8
													c0,14.4-11.6,26-26,26s-26-11.6-26-26s11.6-26,26-26C470.8,13.8,482.5,25.4,482.5,39.8z M484.5,39.8
													c0-15.5-12.5-28-28-28s-28,12.5-28,28s12.5,28,28,28S484.5,55.3,484.5,39.8z"/>
											</defs>
											<clipPath id="SVGID_00000069398720356777804230000007446951419849576615_">
												<use xlink:href="#SVGID_00000152243839881655398040000017201145743566855584_"  style="overflow:visible;"/>
											</clipPath>
											
												<rect x="418.5" y="1.8" style="clip-path:url(#SVGID_00000069398720356777804230000007446951419849576615_);fill:#00FFFF;" width="76" height="76"/>
										</g>
									</g>
								</g>
							</g>
						</g>
					</g>
				</g>
			</g>
		</g>
	</g>
	<g id="Page-1" class="st22">
		<g id="_x32_108-Creatio-Home" transform="translate(-949.000000, -3506.000000)">
			<g id="Group" transform="translate(950.000000, 3507.000000)">
				<polygon id="Rectangle-6-Copy-8" class="st23" points="595.3,25.5 610.5,25.5 617.3,32.6 617.3,52.5 595.3,52.5 				"/>
				<polygon id="Rectangle-Copy-8" class="st23" points="602.3,41.5 611.3,41.5 611.3,46.5 602.3,46.5 				"/>
			</g>
		</g>
	</g>
	<g>
		<g>
			<g>
				<g>
					<g>
						<g>
							<g>
								<g>
									<g>
										<defs>
											<path id="SVGID_00000144305861976208859520000008958521465501397181_" d="M656.3,39.7c0,7.2-5.8,13-13,13s-13-5.8-13-13
												s5.8-13,13-13S656.3,32.5,656.3,39.7z M657.3,39.7c0-7.7-6.3-14-14-14s-14,6.3-14,14s6.3,14,14,14S657.3,47.4,657.3,39.7
												z"/>
										</defs>
										<clipPath id="SVGID_00000175290751393525909250000015805085624066705596_">
											<use xlink:href="#SVGID_00000144305861976208859520000008958521465501397181_"  style="overflow:visible;"/>
										</clipPath>
										<g style="clip-path:url(#SVGID_00000175290751393525909250000015805085624066705596_);">
											<g>
												<g>
													<g>
														<g>
															<g>
																<g>
																	<g>
																		<defs>
																			
																				<rect id="SVGID_00000026132531034932680850000016954490875886648728_" x="-118.7" y="-3584.3" width="1440" height="4638"/>
																		</defs>
																		<clipPath id="SVGID_00000016758681933279975270000015278057728867587233_">
																			<use xlink:href="#SVGID_00000026132531034932680850000016954490875886648728_"  style="overflow:visible;"/>
																		</clipPath>
																		
																			<rect x="624.3" y="20.7" style="clip-path:url(#SVGID_00000016758681933279975270000015278057728867587233_);fill:#0075C9;" width="38" height="38"/>
																	</g>
																</g>
															</g>
														</g>
													</g>
												</g>
											</g>
										</g>
									</g>
								</g>
							</g>
						</g>
					</g>
				</g>
			</g>
		</g>
		<line class="st26" x1="643.3" y1="31.7" x2="643.3" y2="47.7"/>
		<line class="st26" x1="635.3" y1="39.7" x2="651.3" y2="39.7"/>
	</g>
	<circle class="st27" cx="680.9" cy="39.7" r="13"/>
	<line class="st26" x1="675.4" y1="33.6" x2="686.8" y2="45.2"/>
	<line class="st26" x1="686.9" y1="33.7" x2="675.3" y2="45.1"/>
	<g>
		<line class="st28" x1="801.4" y1="26.7" x2="827" y2="52.7"/>
		<line class="st28" x1="827.2" y1="26.9" x2="801.2" y2="52.5"/>
	</g>
	<path class="st29" d="M719.6,42.9c-1,0-1.9,0.3-2.7,0.9l-4.6-2.9c0.1-0.6,0.1-1.2,0-1.9l4.6-2.9c0.7,0.6,1.7,0.9,2.7,0.9
		c2.4,0,4.3-1.9,4.3-4.3s-1.9-4.3-4.3-4.3c-2.4,0-4.3,1.9-4.3,4.3c0,0.3,0,0.6,0.1,0.9l-4.6,2.9c-0.7-0.6-1.7-0.9-2.7-0.9
		c-2.4,0-4.3,1.9-4.3,4.3s1.9,4.3,4.3,4.3c1,0,1.9-0.3,2.7-0.9l4.6,2.9c-0.1,0.3-0.1,0.6-0.1,0.9c0,2.4,1.9,4.3,4.3,4.3
		c2.4,0,4.3-1.9,4.3-4.3S722,42.9,719.6,42.9z"/>
	<g>
		<g>
			<g>
				<g>
					<g>
						<defs>
							<path id="SVGID_00000132803091010118388170000011262086322678795167_" d="M761.3,40.4c0,7.2-5.8,13-13,13s-13-5.8-13-13
								s5.8-13,13-13C755.5,27.4,761.3,33.2,761.3,40.4z M762.3,40.4c0-7.7-6.3-14-14-14s-14,6.3-14,14s6.3,14,14,14
								S762.3,48.1,762.3,40.4z"/>
						</defs>
						<clipPath id="SVGID_00000082367567439992509930000000737417050217639304_">
							<use xlink:href="#SVGID_00000132803091010118388170000011262086322678795167_"  style="overflow:visible;"/>
						</clipPath>
						<g style="clip-path:url(#SVGID_00000082367567439992509930000000737417050217639304_);">
							<g>
								<g>
									<g>
										<g>
											<defs>
												
													<rect id="SVGID_00000055671642136915530800000016439586732819260035_" x="392.3" y="-2175.6" width="1441" height="5247"/>
											</defs>
											<clipPath id="SVGID_00000088127487767558450950000007842048037314509956_">
												<use xlink:href="#SVGID_00000055671642136915530800000016439586732819260035_"  style="overflow:visible;"/>
											</clipPath>
											
												<rect x="729.3" y="21.4" style="clip-path:url(#SVGID_00000088127487767558450950000007842048037314509956_);fill:#FFFFFF;" width="38" height="38"/>
										</g>
									</g>
								</g>
							</g>
						</g>
					</g>
				</g>
			</g>
		</g>
	</g>
	<g>
		<line class="st32" x1="748.8" y1="31.9" x2="748.8" y2="47.9"/>
		<line class="st32" x1="740.8" y1="39.9" x2="756.8" y2="39.9"/>
	</g>
	<g>
		<line class="st33" x1="781.3" y1="31.7" x2="781.3" y2="47.7"/>
		<line class="st33" x1="773.3" y1="39.7" x2="789.3" y2="39.7"/>
	</g>
</g>
<g>
	<g>
		<defs>
			<rect id="SVGID_00000117666707788702918210000018017720333762427538_" x="492.1" y="30.3" width="10.5" height="19.6"/>
		</defs>
		<clipPath id="SVGID_00000140716248407418068030000002012953107896808582_">
			<use xlink:href="#SVGID_00000117666707788702918210000018017720333762427538_"  style="overflow:visible;"/>
		</clipPath>
		<g style="clip-path:url(#SVGID_00000140716248407418068030000002012953107896808582_);enable-background:new    ;">
			<g>
				<g>
					<defs>
						<rect id="SVGID_00000003082386150192434060000005240312560916079796_" x="491.1" y="30.3" width="48" height="20"/>
					</defs>
					<clipPath id="SVGID_00000087399376592218770750000001118190459742720415_">
						<use xlink:href="#SVGID_00000003082386150192434060000005240312560916079796_"  style="overflow:visible;"/>
					</clipPath>
					<g style="clip-path:url(#SVGID_00000087399376592218770750000001118190459742720415_);">
						<g>
							<defs>
								<path id="SVGID_00000101783475203998037230000017258501119968197559_" d="M501.9,41.3l0.5-3.6H499v-2.3c0-1,0.5-1.9,2-1.9
									h1.5v-3c0,0-1.4-0.2-2.8-0.2c-2.8,0-4.6,1.7-4.6,4.8v2.7H492v3.6h3.1V50h3.8v-8.6h3V41.3z"/>
							</defs>
							<clipPath id="SVGID_00000103966006526061778630000015552017129711538064_">
								<use xlink:href="#SVGID_00000101783475203998037230000017258501119968197559_"  style="overflow:visible;"/>
							</clipPath>
							<g style="clip-path:url(#SVGID_00000103966006526061778630000015552017129711538064_);">
								<g>
									<defs>
										<rect id="SVGID_00000045608281090917253500000014069122271989653161_" x="492.1" y="30.3" width="11" height="20"/>
									</defs>
									<clipPath id="SVGID_00000159469404243476856660000018053086883160657031_">
										<use xlink:href="#SVGID_00000045608281090917253500000014069122271989653161_"  style="overflow:visible;"/>
									</clipPath>
									
										<rect x="487.1" y="25.3" style="clip-path:url(#SVGID_00000159469404243476856660000018053086883160657031_);fill:#FEFEFE;" width="20.5" height="29.6"/>
								</g>
							</g>
						</g>
					</g>
				</g>
				<g>
					<defs>
						<rect id="SVGID_00000149379523765090351650000005254123098581410740_" x="491.1" y="30.3" width="48" height="20"/>
					</defs>
					<clipPath id="SVGID_00000065770101110895531640000008912294599447311780_">
						<use xlink:href="#SVGID_00000149379523765090351650000005254123098581410740_"  style="overflow:visible;"/>
					</clipPath>
					<g style="clip-path:url(#SVGID_00000065770101110895531640000008912294599447311780_);">
						<g>
							<defs>
								<path id="SVGID_00000141423538072404165930000016125084873683637653_" d="M538.9,33.8c-0.6,0.3-1.3,0.5-2,0.6
									c0.3-0.1,0.8-0.6,1-0.9c0.3-0.4,0.5-0.8,0.7-1.2v-0.1h-0.1c-0.8,0.4-1.6,0.7-2.4,0.9c-0.1,0-0.1,0-0.2,0
									c-0.1-0.1-0.1-0.2-0.2-0.2c-0.4-0.3-0.7-0.5-1.2-0.7c-0.6-0.2-1.2-0.3-1.8-0.3s-1.2,0.2-1.7,0.5s-1,0.7-1.4,1.1
									c-0.4,0.5-0.7,1-0.8,1.6s-0.1,1.1,0,1.7c0,0.1,0,0.1-0.1,0.1c-3.3-0.5-6-1.7-8.2-4.2c-0.1-0.1-0.1-0.1-0.2,0
									c-1,1.5-0.5,3.8,0.7,4.9c0.2,0.2,0.3,0.3,0.5,0.4c-0.1,0-0.9-0.1-1.6-0.4c-0.1-0.1-0.1,0-0.2,0.1c0,0.2,0,0.3,0,0.5
									c0.2,1.5,1.2,2.8,2.6,3.4c0.2,0.1,0.3,0.1,0.5,0.2c-0.3,0.1-0.6,0.1-1.6,0c-0.1,0-0.2,0-0.1,0.1c0.7,1.9,2.2,2.4,3.3,2.7
									c0.1,0,0.3,0,0.4,0.1l0,0c-0.4,0.6-1.6,1-2.2,1.2c-1.1,0.4-2.3,0.5-3.4,0.4c-0.2,0-0.2,0-0.3,0c0,0,0,0.1,0.1,0.1
									c0.2,0.2,0.5,0.3,0.7,0.4c0.7,0.4,1.5,0.7,2.3,0.9c4.1,1.1,8.7,0.3,11.7-2.7c2.4-2.4,3.2-5.7,3.2-9c0-0.1,0.2-0.2,0.2-0.3
									c0.6-0.5,1.1-1,1.6-1.7C539,34,539,33.9,538.9,33.8L538.9,33.8C539,33.8,539,33.8,538.9,33.8"/>
							</defs>
							<clipPath id="SVGID_00000038406212478395941940000002421385965937048229_">
								<use xlink:href="#SVGID_00000141423538072404165930000016125084873683637653_"  style="overflow:visible;"/>
							</clipPath>
							<g style="clip-path:url(#SVGID_00000038406212478395941940000002421385965937048229_);">
								<g>
									<defs>
										<rect id="SVGID_00000061468492070894918870000013074458907995456903_" x="492.1" y="30.3" width="11" height="20"/>
									</defs>
									<clipPath id="SVGID_00000181085201517102275100000003423581974189070509_">
										<use xlink:href="#SVGID_00000061468492070894918870000013074458907995456903_"  style="overflow:visible;"/>
									</clipPath>
									
										<rect x="514" y="26.9" style="clip-path:url(#SVGID_00000181085201517102275100000003423581974189070509_);fill:#FEFEFE;" width="30" height="26.4"/>
								</g>
							</g>
						</g>
					</g>
				</g>
			</g>
		</g>
	</g>
</g>
<g>
	<defs>
		<circle id="SVGID_00000072990866952250525810000012907106779568198070_" cx="907.4" cy="40" r="14.5"/>
	</defs>
	<clipPath id="SVGID_00000171696741079513648400000006955846160800363142_">
		<use xlink:href="#SVGID_00000072990866952250525810000012907106779568198070_"  style="overflow:visible;"/>
	</clipPath>
	<g style="clip-path:url(#SVGID_00000171696741079513648400000006955846160800363142_);">
		<defs>
			<rect id="SVGID_00000129194154551955225330000009184069750851058596_" x="666.9" y="0.5" width="320" height="2869"/>
		</defs>
		<clipPath id="SVGID_00000114770318815599021560000010006914236198511504_">
			<use xlink:href="#SVGID_00000129194154551955225330000009184069750851058596_"  style="overflow:visible;"/>
		</clipPath>
		
			<rect x="887.9" y="20.5" style="clip-path:url(#SVGID_00000114770318815599021560000010006914236198511504_);fill:#0075C9;" width="39" height="39"/>
	</g>
</g>
<g>
	<path class="st43" d="M913.3,44.1c0,0.6-0.5,1-1,1h-9.3c-0.6,0-1-0.5-1-1v-6.9c0-0.6,0.5-1,1-1h9.3c0.6,0,1,0.5,1,1V44.1z
		 M912.3,37h-9.3c-0.1,0-0.2,0.1-0.2,0.2c0,0.7,0.4,1.3,0.9,1.8c0.8,0.7,1.7,1.3,2.5,2c0.3,0.3,0.9,0.9,1.4,0.9h0h0
		c0.4,0,1-0.6,1.4-0.9c0.8-0.7,1.7-1.3,2.5-2c0.4-0.3,0.9-1,0.9-1.6C912.5,37.3,912.6,37,912.3,37z M912.5,39.2
		c-0.1,0.2-0.3,0.3-0.4,0.4c-0.9,0.7-1.8,1.4-2.7,2.1c-0.5,0.4-1.1,0.9-1.7,0.9h0h0c-0.7,0-1.2-0.5-1.7-0.9
		c-0.9-0.7-1.8-1.4-2.7-2.1c-0.2-0.1-0.3-0.3-0.4-0.4v4.8c0,0.1,0.1,0.2,0.2,0.2h9.3c0.1,0,0.2-0.1,0.2-0.2V39.2z"/>
</g>
</svg>
